<?xml version="1.0" encoding="utf-8"?>
<!-- Generator: Adobe Illustrator 23.0.1, SVG Export Plug-In . SVG Version: 6.00 Build 0)  -->
<svg version="1.1" id="Warstwa_1" xmlns="http://www.w3.org/2000/svg" xmlns:xlink="http://www.w3.org/1999/xlink" x="0px" y="0px"
	 viewBox="0 0 504 576" style="enable-background:new 0 0 504 576;" xml:space="preserve">
<style type="text/css">
	.st0{fill:#C2C2C2;stroke:#000000;stroke-miterlimit:10;}
	.st1{fill:#999999;stroke:#000000;stroke-miterlimit:10;}
	.st2{clip-path:url(#XMLID_3_);fill:#999999;stroke:#000000;stroke-miterlimit:10;}
</style>
<g>
	<path class="st0" d="M419.3,265.8c-5.37,2.52-10.62,5.32-16.12,7.5c-25.96,10.3-53.11,16.45-80.3,22.34
		c-18.39,3.98-36.94,7.23-55.36,11.05c-2.16,0.45-4.59,2-5.91,3.78c-11.97,15.99-23.67,32.17-35.57,48.22
		c-1.7,2.29-2.2,3.77-0.25,6.4c9.26,12.46,8.03,28.47-2.62,38.61c-10.76,10.25-26.83,11.21-38.4,2.28
		c-11.34-8.75-14.71-24.96-7.77-37.33c7.4-13.19,22.57-18.45,37.1-12.88c0.91,0.35,1.81,0.75,3.38,1.41
		c11.62-17.52,23.86-34.63,30.17-55c-6.57-5.35-14-6.85-21.47-7.06c-15.12-0.42-30.26-0.1-45.39-0.19
		c-2.96-0.02-3.83,1.29-4.37,4.08c-3.15,16.41-16.17,26.39-32.12,24.9c-14.9-1.39-25.91-13.7-26-29.76
		c-0.03-4.36-2.6-5.47-5.55-6.42c-5.87-1.88-12-3.03-17.71-5.26c-3.54-1.38-6.6-4.07-9.68-6.43c-0.63-0.48-0.88-2.59-0.4-3.1
		c0.75-0.8,2.49-1.51,3.42-1.17c3.88,1.42,7.56,3.37,11.41,4.88c5.83,2.28,11.7,4.49,17.66,6.38c1.06,0.34,3.31-0.68,3.93-1.71
		c6.58-11.11,16.24-16.82,29.05-15.59c12.87,1.23,21.13,8.94,25.44,20.99c0.05,0.14,0.22,0.24,0.65,0.7
		c19.4-1.86,39.07-4.27,58.81-5.42c9.44-0.55,15.52-4.26,21.6-11.35c25.02-29.22,50.86-57.75,79.53-83.5
		c7.29-6.55,15.28-12.33,23.03-18.35c2.31-1.8,4.9-3.24,7.36-4.84c0.31,0.41,0.63,0.83,0.94,1.24
		c-26.96,36.84-53.91,73.67-81.77,111.75c45.06-4.27,88.82-8.42,132.59-12.57C418.83,264.84,419.06,265.32,419.3,265.8z"/>
	<path class="st1" d="M138.55,306.57c-1.72,1.35-3.63,2.08-5.9,1.87c-2.39-0.23-5.1-2.26-5.34-5.51c-0.11-1.46,0.03-2.87,0.45-4.24
		c0.3-0.99,0.57-1.99,0.84-2.99c0.39-1.44-0.03-2.73-0.89-3.95c-0.69-0.98-1.28-2.01-1.52-3.19c-0.39-1.94-0.09-3.64,1.4-4.94
		c1.58-1.39,3.38-1.91,5.5-1.13c1.6,0.59,2.99,1.51,4.14,2.83c1.06,1.21,2.38,1.97,3.94,2.18c1.9,0.25,3.27,1.36,4.25,2.95
		c1.64,2.66,1.91,5.48,1.13,8.36c-0.25,0.93-0.81,1.65-1.64,2.04c-1.98,0.92-3.45,2.39-4.79,4.05
		C139.64,305.49,139.08,306.02,138.55,306.57z"/>
	<path class="st1" d="M166.03,304.11c-4.9,3.88-10.43,3.81-15.22-0.17c-1.34-1.12-1.78-3.01-1.16-4.69c0.6-1.61,1.83-2.63,3.3-3.31
		c3.06-1.42,6.34-2.03,9.77-1.91c1.98,0.07,3.72,0.91,5.24,2.25c0.85,0.76,1.01,1.73,0.89,2.76
		C168.6,301.14,167.91,302.37,166.03,304.11z"/>
	<path class="st1" d="M149.38,281.22c0.84-0.74,1.95-1.12,3.16-1.29c4.55-0.64,8.73,0.41,12.44,3.51c0.86,0.72,1.55,1.59,2.05,2.61
		c1.05,2.14,0.43,4.09-1.63,5.04c-1.52,0.71-3.16,0.92-4.84,0.71c-2.88-0.36-5.77-0.75-8.64-1.22c-2.64-0.44-4.57-2.57-4.69-5.03
		C147.13,283.98,147.89,282.43,149.38,281.22z"/>
	<path class="st1" d="M152.9,313.64c-1.03,0.91-2.27,1.26-3.66,1.23c-2.82-0.08-5.55-0.6-8.07-2.15c-0.27-0.17-0.54-0.35-0.79-0.55
		c-1.52-1.23-1.85-2.75-0.84-4.31c0.83-1.29,1.81-2.46,3.21-3.17c2.41-1.22,5.54-0.3,7.05,2.1c0.58,0.93,1.29,1.63,2.28,2.11
		c0.92,0.45,1.51,1.3,1.9,2.24c0.29,0.72,0.03,1.35-0.43,1.88C153.37,313.24,153.13,313.43,152.9,313.64z"/>
	<path class="st1" d="M137.52,281.73c-1.72-2.08-1.72-4.19,0.15-6.21c2.41-2.6,5.45-3.56,9.07-2.78c0.32,0.07,0.64,0.19,0.95,0.33
		c1.67,0.76,2.36,2.52,1.43,4.02c-1.23,1.98-2.56,3.9-3.92,5.79c-0.8,1.11-2.05,1.51-3.41,1.57c-0.26,0.01-0.56-0.04-0.8-0.15
		C139.67,283.66,138.44,282.9,137.52,281.73z"/>
	<path class="st1" d="M205.73,397.46c-0.03,2.19-0.67,4.13-2.26,5.76c-1.68,1.72-4.97,2.54-7.64,0.69
		c-1.21-0.84-2.21-1.83-3.02-3.02c-0.58-0.85-1.19-1.69-1.8-2.54c-0.87-1.21-2.14-1.7-3.63-1.79c-1.2-0.08-2.37-0.27-3.43-0.82
		c-1.75-0.91-2.88-2.22-2.97-4.2c-0.09-2.1,0.64-3.83,2.58-4.99c1.47-0.87,3.05-1.38,4.8-1.45c1.61-0.06,3.03-0.61,4.18-1.7
		c1.39-1.32,3.12-1.68,4.96-1.45c3.1,0.39,5.46,1.96,7.21,4.38c0.56,0.78,0.78,1.67,0.55,2.56c-0.53,2.11-0.31,4.19,0.14,6.27
		C205.58,395.93,205.63,396.7,205.73,397.46z"/>
	<path class="st1" d="M221.09,374.54c-0.07,6.25-3.6,10.5-9.7,11.73c-1.71,0.34-3.46-0.51-4.37-2.05c-0.88-1.48-0.89-3.07-0.5-4.64
		c0.82-3.27,2.41-6.2,4.66-8.8c1.3-1.5,3.04-2.32,5.05-2.66c1.13-0.19,1.98,0.3,2.71,1.04
		C220.41,370.67,220.93,371.99,221.09,374.54z"/>
	<path class="st1" d="M192.83,373.1c-0.05-1.12,0.36-2.22,0.98-3.27c2.37-3.94,5.81-6.53,10.55-7.46c1.1-0.22,2.21-0.2,3.31,0.05
		c2.32,0.53,3.45,2.24,2.9,4.44c-0.41,1.63-1.27,3.04-2.49,4.21c-2.09,2.02-4.21,4.01-6.38,5.95c-2,1.78-4.87,1.94-6.86,0.48
		C193.57,376.58,192.84,375.01,192.83,373.1z"/>
	<path class="st1" d="M220.25,390.74c0.06,1.37-0.45,2.56-1.35,3.61c-1.83,2.15-3.96,3.94-6.74,4.92c-0.3,0.11-0.61,0.2-0.92,0.27
		c-1.91,0.41-3.3-0.29-3.88-2.06c-0.48-1.46-0.78-2.95-0.45-4.49c0.57-2.64,3.25-4.5,6.07-4.16c1.09,0.13,2.07,0.02,3.07-0.44
		c0.93-0.43,1.96-0.36,2.93-0.06c0.74,0.23,1.07,0.82,1.19,1.51C220.24,390.13,220.23,390.44,220.25,390.74z"/>
	<path class="st1" d="M185.76,382.64c-2.7,0.03-4.34-1.3-4.73-4.02c-0.51-3.51,0.66-6.48,3.54-8.8c0.26-0.21,0.55-0.38,0.85-0.53
		c1.64-0.82,3.44-0.25,4.02,1.42c0.77,2.2,1.42,4.44,2.04,6.69c0.36,1.32-0.11,2.55-0.93,3.64c-0.16,0.21-0.38,0.41-0.63,0.53
		C188.62,382.19,187.26,382.66,185.76,382.64z"/>
	<g>
		<g>
			<defs>
				<circle id="XMLID_1_" cx="262.48" cy="290.08" r="9.53"/>
			</defs>
			<use xlink:href="#XMLID_1_"  style="overflow:visible;fill:#999999;"/>
			<clipPath id="XMLID_3_">
				<use xlink:href="#XMLID_1_"  style="overflow:visible;"/>
			</clipPath>
			
				<rect x="249.03" y="288.17" transform="matrix(0.873 0.4878 -0.4878 0.873 174.8507 -91.186)" class="st2" width="26.9" height="3.82"/>
			<use xlink:href="#XMLID_1_"  style="overflow:visible;fill:none;stroke:#000000;stroke-miterlimit:10;"/>
		</g>
	</g>
</g>
</svg>
